<svg width="40" height="40" viewBox="0 0 40 40" fill="none" xmlns="http://www.w3.org/2000/svg">
<path fill-rule="evenodd" clip-rule="evenodd" d="M8 11.75C8 9.67893 9.67893 8 11.75 8H28.25C30.3211 8 32 9.67893 32 11.75V28.25C32 30.3211 30.3211 32 28.25 32H11.75C9.67893 32 8 30.3211 8 28.25V11.75ZM20 14C23.3 14 26 16.7 26 20C26 23 23.825 25.55 20.825 26V21.725H22.25L22.55 20H20.9V18.875C20.9 18.425 21.125 17.975 21.875 17.975H22.625V16.475C22.625 16.475 21.95 16.325 21.275 16.325C19.925 16.325 19.025 17.15 19.025 18.65V20H17.525V21.725H19.025V25.925C16.175 25.475 14 23 14 20C14 16.7 16.7 14 20 14Z" fill="#898C93"/>
<rect x="0.5" y="0.5" width="39" height="39" rx="5.5" stroke="#D3DBE3"/>
</svg>
