<svg width="18" height="18" viewBox="0 0 18 18" fill="none" xmlns="http://www.w3.org/2000/svg">
<path d="M8.99984 0.666504C7.35166 0.666504 5.7405 1.15525 4.37009 2.07092C2.99968 2.9866 1.93158 4.28809 1.30084 5.81081C0.670115 7.33353 0.505087 9.00908 0.82663 10.6256C1.14817 12.2421 1.94185 13.727 3.10728 14.8924C4.27272 16.0578 5.75758 16.8515 7.37409 17.173C8.9906 17.4946 10.6662 17.3296 12.1889 16.6988C13.7116 16.0681 15.0131 15 15.9288 13.6296C16.8444 12.2592 17.3332 10.648 17.3332 8.99984C17.3332 7.90549 17.1176 6.82186 16.6988 5.81081C16.28 4.79976 15.6662 3.8811 14.8924 3.10728C14.1186 2.33346 13.1999 1.71963 12.1889 1.30084C11.1778 0.882052 10.0942 0.666504 8.99984 0.666504ZM8.99984 2.33317C9.50199 2.33645 10.0022 2.39514 10.4915 2.50817C10.3467 2.83516 10.1234 3.12139 9.84151 3.3415C9.65817 3.48317 9.45817 3.59984 9.25817 3.72484C8.62503 4.03657 8.0912 4.51846 7.71651 5.1165C7.30603 5.97198 7.12785 6.92039 7.19984 7.8665C7.19984 8.99984 7.19984 9.6665 6.40817 10.2582C5.26651 11.1498 3.52484 10.6498 2.44151 10.1998C2.37068 9.80373 2.33444 9.40222 2.33317 8.99984C2.33317 7.23173 3.03555 5.53604 4.2858 4.28579C5.53604 3.03555 7.23173 2.33317 8.99984 2.33317ZM13.0748 14.2665C12.9307 13.9337 12.7549 13.6156 12.5498 13.3165C12.4582 13.1832 12.3665 13.0498 12.2832 12.9082C11.9582 12.3415 12.0748 12.0748 12.5998 11.2415L12.6832 11.0998C13.0213 10.4798 13.1882 9.78079 13.1665 9.07484C13.1657 8.79534 13.1908 8.51636 13.2415 8.2415C13.3748 7.63317 14.6665 7.4665 15.4665 7.40817C15.7898 8.66527 15.7363 9.9897 15.3125 11.2166C14.8887 12.4435 14.1134 13.5186 13.0832 14.3082L13.0748 14.2665Z" fill="#338FE8"/>
</svg>
