<svg width="18" height="14" viewBox="0 0 18 14" fill="none" xmlns="http://www.w3.org/2000/svg">
<path d="M14.8332 0.333496H3.1665C2.50346 0.333496 1.86758 0.596888 1.39874 1.06573C0.929896 1.53457 0.666504 2.17045 0.666504 2.8335V11.1668C0.666504 11.8299 0.929896 12.4658 1.39874 12.9346C1.86758 13.4034 2.50346 13.6668 3.1665 13.6668H14.8332C15.4962 13.6668 16.1321 13.4034 16.6009 12.9346C17.0698 12.4658 17.3332 11.8299 17.3332 11.1668V2.8335C17.3332 2.17045 17.0698 1.53457 16.6009 1.06573C16.1321 0.596888 15.4962 0.333496 14.8332 0.333496ZM14.8332 2.00016L9.4165 5.72516C9.28982 5.7983 9.14612 5.83681 8.99984 5.83681C8.85356 5.83681 8.70985 5.7983 8.58317 5.72516L3.1665 2.00016H14.8332Z" fill="#338FE8"/>
</svg>
