<svg width="48" height="48" viewBox="0 0 48 48" fill="none" xmlns="http://www.w3.org/2000/svg">
<rect width="48" height="48" rx="6" fill="#338FE8"/>
<g clip-path="url(#clip0_130_1503)">
<path d="M31 15H17C16.2044 15 15.4413 15.3161 14.8787 15.8787C14.3161 16.4413 14 17.2044 14 18V23H34V18C34 17.2044 33.6839 16.4413 33.1213 15.8787C32.5587 15.3161 31.7956 15 31 15Z" fill="white"/>
<path d="M14 26C14 26.7956 14.3161 27.5587 14.8787 28.1213C15.4413 28.6839 16.2044 29 17 29H23V31H19C18.7348 31 18.4804 31.1054 18.2929 31.2929C18.1054 31.4804 18 31.7348 18 32C18 32.2652 18.1054 32.5196 18.2929 32.7071C18.4804 32.8946 18.7348 33 19 33H29C29.2652 33 29.5196 32.8946 29.7071 32.7071C29.8946 32.5196 30 32.2652 30 32C30 31.7348 29.8946 31.4804 29.7071 31.2929C29.5196 31.1054 29.2652 31 29 31H25V29H31C31.7956 29 32.5587 28.6839 33.1213 28.1213C33.6839 27.5587 34 26.7956 34 26V25H14V26Z" fill="white"/>
</g>
<defs>
<clipPath id="clip0_130_1503">
<rect width="24" height="24" fill="white" transform="translate(12 12)"/>
</clipPath>
</defs>
</svg>
