<svg width="16" height="18" viewBox="0 0 16 18" fill="none" xmlns="http://www.w3.org/2000/svg">
<path d="M7.90086 17.9257C6.92131 17.9174 5.95334 17.713 5.05402 17.3246C4.1547 16.9363 3.34223 16.3718 2.6645 15.6645C1.2885 14.221 0.529178 12.2981 0.547694 10.3039C0.56621 8.30975 1.3611 6.40127 2.76367 4.98355L7.36532 0.371979C7.455 0.275443 7.56412 0.199013 7.68549 0.147729C7.80686 0.0964452 7.93773 0.0714726 8.06945 0.0744581C8.20137 0.0762921 8.3316 0.104428 8.4525 0.157219C8.57341 0.210009 8.68257 0.286393 8.77359 0.381896L13.2959 5.06289C14.6732 6.50512 15.4343 8.42731 15.4176 10.4215C15.401 12.4157 14.6079 14.3249 13.2066 15.7439C12.5165 16.4485 11.6902 17.0052 10.7781 17.3803C9.86593 17.7554 8.887 17.941 7.90086 17.9257Z" fill="white"/>
</svg>
