<svg width="18" height="18" viewBox="0 0 18 18" fill="none" xmlns="http://www.w3.org/2000/svg">
<path d="M13.4998 17.3333C10.0976 17.3289 6.83593 15.9754 4.43017 13.5696C2.02441 11.1638 0.670914 7.90219 0.666504 4.49993C0.666504 3.48327 1.07037 2.50825 1.78926 1.78936C2.50815 1.07047 3.48317 0.666599 4.49984 0.666599C4.71512 0.664959 4.93004 0.684498 5.1415 0.724932C5.34593 0.755183 5.54689 0.805424 5.7415 0.874932C5.87838 0.922957 6.00035 1.00588 6.09535 1.11549C6.19035 1.22511 6.25509 1.35762 6.28317 1.49993L7.42484 6.49993C7.45561 6.63565 7.4519 6.77692 7.41406 6.91084C7.37621 7.04475 7.30543 7.16706 7.20817 7.2666C7.09984 7.38327 7.0915 7.3916 6.0665 7.92493C6.88733 9.72565 8.3275 11.1717 10.1248 11.9999C10.6665 10.9666 10.6748 10.9583 10.7915 10.8499C10.891 10.7527 11.0133 10.6819 11.1473 10.644C11.2812 10.6062 11.4225 10.6025 11.5582 10.6333L16.5582 11.7749C16.6959 11.8069 16.8233 11.8734 16.9282 11.9681C17.0332 12.0629 17.1123 12.1828 17.1582 12.3166C17.2285 12.5144 17.2815 12.7179 17.3165 12.9249C17.35 13.1344 17.3668 13.3462 17.3665 13.5583C17.3511 14.5706 16.9359 15.5357 16.2115 16.243C15.487 16.9502 14.5122 17.3422 13.4998 17.3333Z" fill="#338FE8"/>
</svg>
