<svg width="40" height="40" viewBox="0 0 40 40" fill="none" xmlns="http://www.w3.org/2000/svg">
<path d="M20 22.1C18.875 22.1 17.9 21.2 17.9 20C17.9 18.875 18.8 17.9 20 17.9C21.125 17.9 22.1 18.8 22.1 20C22.1 21.125 21.125 22.1 20 22.1Z" fill="#898C93"/>
<path fill-rule="evenodd" clip-rule="evenodd" d="M22.55 14.9H17.45C16.85 14.975 16.55 15.05 16.325 15.125C16.025 15.2 15.8 15.35 15.575 15.575C15.397 15.753 15.3128 15.9311 15.2112 16.1463C15.1844 16.203 15.1563 16.2624 15.125 16.325C15.1134 16.3598 15.1 16.3964 15.0856 16.4356C15.0072 16.65 14.9 16.9428 14.9 17.45V22.55C14.975 23.15 15.05 23.45 15.125 23.675C15.2 23.975 15.35 24.2 15.575 24.425C15.753 24.603 15.9311 24.6872 16.1463 24.7888C16.203 24.8157 16.2624 24.8437 16.325 24.875C16.3598 24.8866 16.3964 24.9 16.4356 24.9144C16.65 24.9928 16.9428 25.1 17.45 25.1H22.55C23.15 25.025 23.45 24.95 23.675 24.875C23.975 24.8 24.2 24.65 24.425 24.425C24.603 24.247 24.6872 24.0689 24.7888 23.8537C24.8156 23.797 24.8437 23.7376 24.875 23.675C24.8866 23.6402 24.9 23.6036 24.9144 23.5644C24.9928 23.35 25.1 23.0572 25.1 22.55V17.45C25.025 16.85 24.95 16.55 24.875 16.325C24.8 16.025 24.65 15.8 24.425 15.575C24.247 15.397 24.0689 15.3128 23.8537 15.2112C23.797 15.1844 23.7375 15.1563 23.675 15.125C23.6402 15.1134 23.6036 15.1 23.5644 15.0856C23.35 15.0072 23.0572 14.9 22.55 14.9ZM20 16.775C18.2 16.775 16.775 18.2 16.775 20C16.775 21.8 18.2 23.225 20 23.225C21.8 23.225 23.225 21.8 23.225 20C23.225 18.2 21.8 16.775 20 16.775ZM24.05 16.7C24.05 17.1142 23.7142 17.45 23.3 17.45C22.8858 17.45 22.55 17.1142 22.55 16.7C22.55 16.2858 22.8858 15.95 23.3 15.95C23.7142 15.95 24.05 16.2858 24.05 16.7Z" fill="#898C93"/>
<path fill-rule="evenodd" clip-rule="evenodd" d="M8 11.75C8 9.67893 9.67893 8 11.75 8H28.25C30.3211 8 32 9.67893 32 11.75V28.25C32 30.3211 30.3211 32 28.25 32H11.75C9.67893 32 8 30.3211 8 28.25V11.75ZM17.45 13.775H22.55C23.225 13.85 23.675 13.925 24.05 14.075C24.5 14.3 24.8 14.45 25.175 14.825C25.55 15.2 25.775 15.575 25.925 15.95C26.075 16.325 26.225 16.775 26.225 17.45V22.55C26.15 23.225 26.075 23.675 25.925 24.05C25.7 24.5 25.55 24.8 25.175 25.175C24.8 25.55 24.425 25.775 24.05 25.925C23.675 26.075 23.225 26.225 22.55 26.225H17.45C16.775 26.15 16.325 26.075 15.95 25.925C15.5 25.7 15.2 25.55 14.825 25.175C14.45 24.8 14.225 24.425 14.075 24.05C13.925 23.675 13.775 23.225 13.775 22.55V17.45C13.85 16.775 13.925 16.325 14.075 15.95C14.3 15.5 14.45 15.2 14.825 14.825C15.2 14.45 15.575 14.225 15.95 14.075C16.325 13.925 16.775 13.775 17.45 13.775Z" fill="#898C93"/>
<rect x="0.5" y="0.5" width="39" height="39" rx="5.5" stroke="#D3DBE3"/>
</svg>
