<svg width="40" height="40" viewBox="0 0 40 40" fill="none" xmlns="http://www.w3.org/2000/svg">
<path fill-rule="evenodd" clip-rule="evenodd" d="M8 11.75C8 9.67893 9.67893 8 11.75 8H28.25C30.3211 8 32 9.67893 32 11.75V28.25C32 30.3211 30.3211 32 28.25 32H11.75C9.67893 32 8 30.3211 8 28.25V11.75ZM14.15 17.975V26H16.7V17.975H14.15ZM14 15.425C14 16.25 14.6 16.85 15.425 16.85C16.25 16.85 16.85 16.25 16.85 15.425C16.85 14.6 16.25 14 15.425 14C14.675 14 14 14.6 14 15.425ZM23.45 26H25.85V21.05C25.85 18.575 24.35 17.75 22.925 17.75C21.65 17.75 20.75 18.575 20.525 19.1V17.975H18.125V26H20.675V21.725C20.675 20.6 21.425 20 22.175 20C22.925 20 23.45 20.375 23.45 21.65V26Z" fill="#898C93"/>
<rect x="0.5" y="0.5" width="39" height="39" rx="5.5" stroke="#D3DBE3"/>
</svg>
