<svg width="16" height="16" viewBox="0 0 16 16" fill="none" xmlns="http://www.w3.org/2000/svg">
<path d="M15.6 2.42857C15.4 1.42857 14.9 0.714286 14.2 0.428572C13 2.55448e-07 7.89999 0 7.89999 0C7.89999 0 2.90001 2.55448e-07 1.60001 0.428572C0.900006 0.714286 0.399997 1.42857 0.199997 2.42857C-3.05474e-06 4.28572 0 8 0 8C0 8 3.03984e-06 11.7143 0.300003 13.5714C0.500003 14.5714 0.999997 15.2857 1.7 15.5714C2.9 16 8 16 8 16C8 16 13 16 14.3 15.5714C15 15.2857 15.5 14.5714 15.7 13.5714C16 11.7143 16 8 16 8C16 8 16 4.28572 15.6 2.42857ZM6.39999 11.4286V4.57143L10.6 8L6.39999 11.4286Z" fill="#338FE8"/>
</svg>
